<mxfile host="app.diagrams.net" modified="2023-06-20T14:22:32.502Z" agent="Mozilla/5.0 (Macintosh; Intel Mac OS X 10_15_7) AppleWebKit/537.36 (KHTML, like Gecko) Chrome/114.0.0.0 Safari/537.36" etag="67tT8tjPFIDSb-TYcLOE" version="21.5.0" type="github" pages="3">
  <diagram name="단일 웹서버 구성도" id="8hj403bot5bpygTqvK2g">
    <mxGraphModel dx="1242" dy="745" grid="1" gridSize="10" guides="1" tooltips="1" connect="1" arrows="1" fold="1" page="1" pageScale="1" pageWidth="827" pageHeight="1169" math="0" shadow="0">
      <root>
        <mxCell id="0" />
        <mxCell id="1" parent="0" />
        <mxCell id="dYgfWhPe4yBONS2cbaGY-3" value="" style="rounded=0;whiteSpace=wrap;html=1;" vertex="1" parent="1">
          <mxGeometry x="160" y="290" width="590" height="470" as="geometry" />
        </mxCell>
        <mxCell id="dYgfWhPe4yBONS2cbaGY-7" value="Coupon Issuer 1" style="rounded=1;whiteSpace=wrap;html=1;" vertex="1" parent="1">
          <mxGeometry x="220" y="320" width="120" height="60" as="geometry" />
        </mxCell>
        <mxCell id="dYgfWhPe4yBONS2cbaGY-9" value="MySql" style="rounded=1;whiteSpace=wrap;html=1;" vertex="1" parent="1">
          <mxGeometry x="400" y="320" width="120" height="60" as="geometry" />
        </mxCell>
        <mxCell id="d8mz_Scy1kdtox8v-EeM-1" value="" style="rounded=0;whiteSpace=wrap;html=1;" vertex="1" parent="1">
          <mxGeometry x="460" y="590" width="270" height="150" as="geometry" />
        </mxCell>
        <mxCell id="dYgfWhPe4yBONS2cbaGY-11" value="Request Generator" style="rounded=1;whiteSpace=wrap;html=1;" vertex="1" parent="1">
          <mxGeometry x="10" y="460" width="120" height="60" as="geometry" />
        </mxCell>
        <mxCell id="dYgfWhPe4yBONS2cbaGY-12" value="elasticsearch" style="rounded=1;whiteSpace=wrap;html=1;" vertex="1" parent="1">
          <mxGeometry x="535" y="600" width="120" height="60" as="geometry" />
        </mxCell>
        <mxCell id="dYgfWhPe4yBONS2cbaGY-4" value="kibana" style="rounded=1;whiteSpace=wrap;html=1;" vertex="1" parent="1">
          <mxGeometry x="600" y="670" width="120" height="60" as="geometry" />
        </mxCell>
        <mxCell id="dYgfWhPe4yBONS2cbaGY-10" value="logstash" style="rounded=1;whiteSpace=wrap;html=1;" vertex="1" parent="1">
          <mxGeometry x="470" y="670" width="120" height="60" as="geometry" />
        </mxCell>
        <mxCell id="d8mz_Scy1kdtox8v-EeM-6" value="" style="rounded=0;whiteSpace=wrap;html=1;" vertex="1" parent="1">
          <mxGeometry x="170" y="610" width="280" height="110" as="geometry" />
        </mxCell>
        <mxCell id="d8mz_Scy1kdtox8v-EeM-5" value="zookeeper" style="rounded=1;whiteSpace=wrap;html=1;" vertex="1" parent="1">
          <mxGeometry x="180" y="635" width="120" height="60" as="geometry" />
        </mxCell>
        <mxCell id="d8mz_Scy1kdtox8v-EeM-2" value="kafka" style="rounded=1;whiteSpace=wrap;html=1;" vertex="1" parent="1">
          <mxGeometry x="320" y="635" width="120" height="60" as="geometry" />
        </mxCell>
      </root>
    </mxGraphModel>
  </diagram>
  <diagram id="AE5c5G_z4_PYt-ZAadMh" name="다중 웹서버 구성도">
    <mxGraphModel dx="1242" dy="745" grid="1" gridSize="10" guides="1" tooltips="1" connect="1" arrows="1" fold="1" page="1" pageScale="1" pageWidth="827" pageHeight="1169" math="0" shadow="0">
      <root>
        <mxCell id="0" />
        <mxCell id="1" parent="0" />
        <mxCell id="OopIUbffFGSa_AgRjCai-1" value="" style="rounded=0;whiteSpace=wrap;html=1;" vertex="1" parent="1">
          <mxGeometry x="160" y="290" width="590" height="470" as="geometry" />
        </mxCell>
        <mxCell id="OopIUbffFGSa_AgRjCai-4" value="Coupon id generator 2" style="rounded=1;whiteSpace=wrap;html=1;" vertex="1" parent="1">
          <mxGeometry x="200" y="380" width="120" height="60" as="geometry" />
        </mxCell>
        <mxCell id="OopIUbffFGSa_AgRjCai-5" value="Coupon id generator 1" style="rounded=1;whiteSpace=wrap;html=1;" vertex="1" parent="1">
          <mxGeometry x="200" y="306" width="120" height="60" as="geometry" />
        </mxCell>
        <mxCell id="OopIUbffFGSa_AgRjCai-7" value="MySql" style="rounded=1;whiteSpace=wrap;html=1;" vertex="1" parent="1">
          <mxGeometry x="380" y="410" width="120" height="60" as="geometry" />
        </mxCell>
        <mxCell id="OopIUbffFGSa_AgRjCai-9" value="Request Generator" style="rounded=1;whiteSpace=wrap;html=1;" vertex="1" parent="1">
          <mxGeometry x="10" y="460" width="120" height="60" as="geometry" />
        </mxCell>
        <mxCell id="OopIUbffFGSa_AgRjCai-11" value="" style="endArrow=none;dashed=1;html=1;dashPattern=1 3;strokeWidth=2;rounded=0;entryX=0.203;entryY=0.553;entryDx=0;entryDy=0;entryPerimeter=0;exitX=0.203;exitY=0.68;exitDx=0;exitDy=0;exitPerimeter=0;" edge="1" parent="1">
          <mxGeometry width="50" height="50" relative="1" as="geometry">
            <mxPoint x="259.5" y="561.6899999999999" as="sourcePoint" />
            <mxPoint x="259.5" y="502.00000000000006" as="targetPoint" />
          </mxGeometry>
        </mxCell>
        <mxCell id="OopIUbffFGSa_AgRjCai-12" value="Coupon id generator N" style="rounded=1;whiteSpace=wrap;html=1;" vertex="1" parent="1">
          <mxGeometry x="200" y="530" width="120" height="60" as="geometry" />
        </mxCell>
        <mxCell id="OopIUbffFGSa_AgRjCai-3" value="Coupon id generator 3" style="rounded=1;whiteSpace=wrap;html=1;" vertex="1" parent="1">
          <mxGeometry x="200" y="450" width="120" height="60" as="geometry" />
        </mxCell>
        <mxCell id="OzSeQXIyr61BTkKAnk7--1" value="" style="rounded=0;whiteSpace=wrap;html=1;" vertex="1" parent="1">
          <mxGeometry x="460" y="590" width="270" height="150" as="geometry" />
        </mxCell>
        <mxCell id="OzSeQXIyr61BTkKAnk7--2" value="elasticsearch" style="rounded=1;whiteSpace=wrap;html=1;" vertex="1" parent="1">
          <mxGeometry x="535" y="600" width="120" height="60" as="geometry" />
        </mxCell>
        <mxCell id="OzSeQXIyr61BTkKAnk7--3" value="kibana" style="rounded=1;whiteSpace=wrap;html=1;" vertex="1" parent="1">
          <mxGeometry x="600" y="670" width="120" height="60" as="geometry" />
        </mxCell>
        <mxCell id="OzSeQXIyr61BTkKAnk7--4" value="logstash" style="rounded=1;whiteSpace=wrap;html=1;" vertex="1" parent="1">
          <mxGeometry x="470" y="670" width="120" height="60" as="geometry" />
        </mxCell>
        <mxCell id="OzSeQXIyr61BTkKAnk7--5" value="" style="rounded=0;whiteSpace=wrap;html=1;" vertex="1" parent="1">
          <mxGeometry x="170" y="610" width="280" height="110" as="geometry" />
        </mxCell>
        <mxCell id="OzSeQXIyr61BTkKAnk7--6" value="zookeeper" style="rounded=1;whiteSpace=wrap;html=1;" vertex="1" parent="1">
          <mxGeometry x="180" y="635" width="120" height="60" as="geometry" />
        </mxCell>
        <mxCell id="OzSeQXIyr61BTkKAnk7--7" value="kafka" style="rounded=1;whiteSpace=wrap;html=1;" vertex="1" parent="1">
          <mxGeometry x="320" y="635" width="120" height="60" as="geometry" />
        </mxCell>
      </root>
    </mxGraphModel>
  </diagram>
  <diagram name="다중 웹서버 - 쿠폰 생성 로직 분리 구성도" id="IUT06Pj9HljFxsqsycia">
    <mxGraphModel dx="1242" dy="745" grid="1" gridSize="10" guides="1" tooltips="1" connect="1" arrows="1" fold="1" page="1" pageScale="1" pageWidth="827" pageHeight="1169" math="0" shadow="0">
      <root>
        <mxCell id="1z6eRA5KJqPgZfo_-Sye-0" />
        <mxCell id="1z6eRA5KJqPgZfo_-Sye-1" parent="1z6eRA5KJqPgZfo_-Sye-0" />
        <mxCell id="1z6eRA5KJqPgZfo_-Sye-2" value="" style="rounded=0;whiteSpace=wrap;html=1;" vertex="1" parent="1z6eRA5KJqPgZfo_-Sye-1">
          <mxGeometry x="160" y="290" width="590" height="470" as="geometry" />
        </mxCell>
        <mxCell id="1z6eRA5KJqPgZfo_-Sye-3" value="Coupon id generator 2" style="rounded=1;whiteSpace=wrap;html=1;" vertex="1" parent="1z6eRA5KJqPgZfo_-Sye-1">
          <mxGeometry x="200" y="380" width="120" height="60" as="geometry" />
        </mxCell>
        <mxCell id="1z6eRA5KJqPgZfo_-Sye-4" value="Coupon id generator 1" style="rounded=1;whiteSpace=wrap;html=1;" vertex="1" parent="1z6eRA5KJqPgZfo_-Sye-1">
          <mxGeometry x="200" y="306" width="120" height="60" as="geometry" />
        </mxCell>
        <mxCell id="1z6eRA5KJqPgZfo_-Sye-5" value="MySql" style="rounded=1;whiteSpace=wrap;html=1;" vertex="1" parent="1z6eRA5KJqPgZfo_-Sye-1">
          <mxGeometry x="620" y="420" width="120" height="60" as="geometry" />
        </mxCell>
        <mxCell id="1z6eRA5KJqPgZfo_-Sye-6" value="Request Generator" style="rounded=1;whiteSpace=wrap;html=1;" vertex="1" parent="1z6eRA5KJqPgZfo_-Sye-1">
          <mxGeometry x="10" y="460" width="120" height="60" as="geometry" />
        </mxCell>
        <mxCell id="1z6eRA5KJqPgZfo_-Sye-7" value="" style="endArrow=none;dashed=1;html=1;dashPattern=1 3;strokeWidth=2;rounded=0;entryX=0.203;entryY=0.553;entryDx=0;entryDy=0;entryPerimeter=0;exitX=0.203;exitY=0.68;exitDx=0;exitDy=0;exitPerimeter=0;" edge="1" parent="1z6eRA5KJqPgZfo_-Sye-1">
          <mxGeometry width="50" height="50" relative="1" as="geometry">
            <mxPoint x="259.5" y="561.6899999999999" as="sourcePoint" />
            <mxPoint x="259.5" y="502.00000000000006" as="targetPoint" />
          </mxGeometry>
        </mxCell>
        <mxCell id="1z6eRA5KJqPgZfo_-Sye-8" value="Coupon id generator N" style="rounded=1;whiteSpace=wrap;html=1;" vertex="1" parent="1z6eRA5KJqPgZfo_-Sye-1">
          <mxGeometry x="200" y="530" width="120" height="60" as="geometry" />
        </mxCell>
        <mxCell id="1z6eRA5KJqPgZfo_-Sye-9" value="Coupon id generator 3" style="rounded=1;whiteSpace=wrap;html=1;" vertex="1" parent="1z6eRA5KJqPgZfo_-Sye-1">
          <mxGeometry x="200" y="450" width="120" height="60" as="geometry" />
        </mxCell>
        <mxCell id="1z6eRA5KJqPgZfo_-Sye-10" value="" style="rounded=0;whiteSpace=wrap;html=1;" vertex="1" parent="1z6eRA5KJqPgZfo_-Sye-1">
          <mxGeometry x="460" y="590" width="270" height="150" as="geometry" />
        </mxCell>
        <mxCell id="1z6eRA5KJqPgZfo_-Sye-11" value="elasticsearch" style="rounded=1;whiteSpace=wrap;html=1;" vertex="1" parent="1z6eRA5KJqPgZfo_-Sye-1">
          <mxGeometry x="535" y="600" width="120" height="60" as="geometry" />
        </mxCell>
        <mxCell id="1z6eRA5KJqPgZfo_-Sye-12" value="kibana" style="rounded=1;whiteSpace=wrap;html=1;" vertex="1" parent="1z6eRA5KJqPgZfo_-Sye-1">
          <mxGeometry x="600" y="670" width="120" height="60" as="geometry" />
        </mxCell>
        <mxCell id="1z6eRA5KJqPgZfo_-Sye-13" value="logstash" style="rounded=1;whiteSpace=wrap;html=1;" vertex="1" parent="1z6eRA5KJqPgZfo_-Sye-1">
          <mxGeometry x="470" y="670" width="120" height="60" as="geometry" />
        </mxCell>
        <mxCell id="1z6eRA5KJqPgZfo_-Sye-14" value="" style="rounded=0;whiteSpace=wrap;html=1;" vertex="1" parent="1z6eRA5KJqPgZfo_-Sye-1">
          <mxGeometry x="170" y="610" width="280" height="110" as="geometry" />
        </mxCell>
        <mxCell id="1z6eRA5KJqPgZfo_-Sye-15" value="zookeeper" style="rounded=1;whiteSpace=wrap;html=1;" vertex="1" parent="1z6eRA5KJqPgZfo_-Sye-1">
          <mxGeometry x="180" y="635" width="120" height="60" as="geometry" />
        </mxCell>
        <mxCell id="1z6eRA5KJqPgZfo_-Sye-16" value="kafka" style="rounded=1;whiteSpace=wrap;html=1;" vertex="1" parent="1z6eRA5KJqPgZfo_-Sye-1">
          <mxGeometry x="320" y="635" width="120" height="60" as="geometry" />
        </mxCell>
        <mxCell id="1z6eRA5KJqPgZfo_-Sye-17" value="redis" style="rounded=1;whiteSpace=wrap;html=1;" vertex="1" parent="1z6eRA5KJqPgZfo_-Sye-1">
          <mxGeometry x="330" y="420" width="120" height="60" as="geometry" />
        </mxCell>
        <mxCell id="1z6eRA5KJqPgZfo_-Sye-18" value="Coupon Creator 1" style="rounded=1;whiteSpace=wrap;html=1;" vertex="1" parent="1z6eRA5KJqPgZfo_-Sye-1">
          <mxGeometry x="490" y="330" width="120" height="60" as="geometry" />
        </mxCell>
        <mxCell id="1z6eRA5KJqPgZfo_-Sye-19" value="" style="endArrow=none;dashed=1;html=1;dashPattern=1 3;strokeWidth=2;rounded=0;entryX=0.203;entryY=0.553;entryDx=0;entryDy=0;entryPerimeter=0;exitX=0.203;exitY=0.68;exitDx=0;exitDy=0;exitPerimeter=0;" edge="1" parent="1z6eRA5KJqPgZfo_-Sye-1">
          <mxGeometry width="50" height="50" relative="1" as="geometry">
            <mxPoint x="549.5" y="499.68999999999994" as="sourcePoint" />
            <mxPoint x="549.5" y="440" as="targetPoint" />
          </mxGeometry>
        </mxCell>
        <mxCell id="1z6eRA5KJqPgZfo_-Sye-20" value="Coupon Creator 2" style="rounded=1;whiteSpace=wrap;html=1;" vertex="1" parent="1z6eRA5KJqPgZfo_-Sye-1">
          <mxGeometry x="490" y="400" width="120" height="60" as="geometry" />
        </mxCell>
        <mxCell id="1z6eRA5KJqPgZfo_-Sye-21" value="Coupon Creator N" style="rounded=1;whiteSpace=wrap;html=1;" vertex="1" parent="1z6eRA5KJqPgZfo_-Sye-1">
          <mxGeometry x="490" y="490" width="120" height="60" as="geometry" />
        </mxCell>
      </root>
    </mxGraphModel>
  </diagram>
</mxfile>
